<svg id="Layer_1" data-name="Layer 1" xmlns="http://www.w3.org/2000/svg" viewBox="0 0 19.5 23.96"><defs><style>.cls-1{fill:#eb555e;}</style></defs><title>delete</title><path class="cls-1" d="M28,10a3.27,3.27,0,0,1,2.44,2.4,11.28,11.28,0,0,1,.18,1.28c1,0,1.93,0,2.9,0s1.59.18,1.48,1.49a2.49,2.49,0,0,0,0,.36h.81v1.82H34V18c0,4.27,0,8.54,0,12.81a2.89,2.89,0,0,1-3,3.11c-3.34-.07-6.68,0-10,0-1.92,0-3-1.11-3-3.11,0-4.27,0-8.54,0-12.81v-.65H16.28V15.56l.89-.07v-.71c0-.75.32-1.09,1-1.1h3.32a7.68,7.68,0,0,1,.07-.86A3.38,3.38,0,0,1,24.08,10ZM19.8,17.37v.57q0,6.49,0,13c0,.91.3,1.22,1.19,1.22H31.08c.91,0,1.22-.32,1.22-1.27v-13c0-.17,0-.34,0-.53Zm8.87-3.72c0-1.26-.44-1.8-1.58-1.8h-2.3a1.39,1.39,0,0,0-1.34,1.8Z" transform="translate(-16.28 -10)"/><path class="cls-1" d="M21.63,19.25h1.7v11h-1.7Z" transform="translate(-16.28 -10)"/><path class="cls-1" d="M26.88,30.22H25.19v-11h1.69Z" transform="translate(-16.28 -10)"/><path class="cls-1" d="M28.76,19.25h1.67v11H28.76Z" transform="translate(-16.28 -10)"/></svg>