<svg id="Layer_1" data-name="Layer 1" xmlns="http://www.w3.org/2000/svg" viewBox="0 0 15.31 15.31"><defs><style>.cls-1{fill:#eb555e;fill-rule:evenodd;}</style></defs><title>Exit</title><path class="cls-1" d="M33.69,27.89v.55a1.7,1.7,0,0,1-1.3,1.22H32a2.74,2.74,0,0,1-1.16-.79c-.85-.87-1.72-1.72-2.57-2.58s-1.46-1.48-2.2-2.22l-.21.19c-1.54,1.54-3.08,3.07-4.61,4.62a2.69,2.69,0,0,1-1.16.78h-.41a1.75,1.75,0,0,1-1.29-1.22V28a2.78,2.78,0,0,1,.81-1.19c.64-.61,1.25-1.24,1.88-1.87L24,22l-.19-.19c-1.53-1.54-3.05-3.07-4.59-4.6a2.75,2.75,0,0,1-.81-1.18v-.48a1.75,1.75,0,0,1,1.29-1.22h.41a2.55,2.55,0,0,1,1.16.78c.29.32.6.61.91.92L26.09,20a1.45,1.45,0,0,1,.22-.33c1.5-1.51,3-3,4.49-4.51A2.78,2.78,0,0,1,32,14.35h.4a1.72,1.72,0,0,1,1.3,1.22v.55a6.48,6.48,0,0,1-.67.95c-1,1-2,2-3,3-.65.66-1.31,1.3-2,2l4.56,4.55A3.92,3.92,0,0,1,33.69,27.89Z" transform="translate(-18.38 -14.35)"/></svg>