<svg id="Layer_1" data-name="Layer 1" xmlns="http://www.w3.org/2000/svg" viewBox="0 0 27.81 27"><defs><style>.cls-1{fill:#666;}</style></defs><title>icon_db_grey</title><path class="cls-1" d="M15.13,11.55l.14-.08L27.2,6.25a2.43,2.43,0,0,0,.61-1.44,1.75,1.75,0,0,0-.33-1.17L16.15.19a5.86,5.86,0,0,0-3.72.27L.61,5.26a2.07,2.07,0,0,0-.26,2.6l11.5,3.91A3,3,0,0,0,15.13,11.55Z" transform="translate(0 -0.01)"/><path class="cls-1" d="M15.13,16.46l.14-.08L27.2,11.16a2.46,2.46,0,0,0,.61-1.43,1.69,1.69,0,0,0-.33-1.17l-.22-.07L16.43,13.27a5.26,5.26,0,0,1-2.88.89,4.79,4.79,0,0,1-2.31-.6L.94,10.08l-.33.13a2.07,2.07,0,0,0-.26,2.6l11.5,3.92A3.05,3.05,0,0,0,15.13,16.46Z" transform="translate(0 -0.01)"/><path class="cls-1" d="M15.12,21.46l.15-.07L27.2,16.16a2.1,2.1,0,0,0,.28-2.6l-.22-.1L16.43,18.23a5.48,5.48,0,0,1-2.88.89,4.92,4.92,0,0,1-2.31-.61L.94,15l-.33.13a2.07,2.07,0,0,0-.26,2.6l11.5,3.92A3,3,0,0,0,15.12,21.46Z" transform="translate(0 -0.01)"/><path class="cls-1" d="M0,21.53a1.69,1.69,0,0,0,.34,1.19l11.5,3.91a3,3,0,0,0,3.27-.23l.14-.07L27.2,21.1a2.1,2.1,0,0,0,.28-2.6l-.22,0L16.43,23.18a5.48,5.48,0,0,1-2.88.89,4.69,4.69,0,0,1-2.31-.61L.94,20l-.33.13A2.39,2.39,0,0,0,0,21.53Z" transform="translate(0 -0.01)"/></svg>