<svg id="Layer_1" data-name="Layer 1" xmlns="http://www.w3.org/2000/svg" viewBox="0 0 12.25 12.25"><defs><style>.cls-1{fill:#009245;}</style></defs><title>icon_db_yes</title><path class="cls-1" d="M9.08,14.64A6.13,6.13,0,1,0,4.75,4.19,6.12,6.12,0,0,0,9.08,14.64M5.29,4.73a5.36,5.36,0,1,1,7.58,7.57A5.36,5.36,0,1,1,5.29,4.73" transform="translate(-2.96 -2.39)"/><path class="cls-1" d="M8,11H8a.35.35,0,0,0,.24-.1l4.14-4.31a.33.33,0,1,0-.48-.46L8,10.17,6.44,8.3a.33.33,0,1,0-.5.43l1.82,2.15A.33.33,0,0,0,8,11" transform="translate(-2.96 -2.39)"/></svg>