<svg id="Layer_1" data-name="Layer 1" xmlns="http://www.w3.org/2000/svg" viewBox="0 0 12.25 12.25"><defs><style>.cls-1{fill:#ed1c24;}</style></defs><title>icon_db_no</title><path class="cls-1" d="M6.32,10.77a.37.37,0,0,0,.27.12.36.36,0,0,0,.27-.12L9.08,8.56l2.22,2.21a.36.36,0,0,0,.27.12.39.39,0,0,0,.27-.12.38.38,0,0,0,0-.54L9.62,8,11.84,5.8a.38.38,0,1,0-.54-.54L9.08,7.47,6.86,5.26a.38.38,0,1,0-.54.54L8.54,8,6.32,10.23a.38.38,0,0,0,0,.54" transform="translate(-2.96 -1.89)"/><path class="cls-1" d="M9.08,14.14A6.13,6.13,0,1,0,4.75,3.69,6.12,6.12,0,0,0,9.08,14.14M5.29,4.23a5.36,5.36,0,1,1,7.58,7.57A5.36,5.36,0,1,1,5.29,4.23" transform="translate(-2.96 -1.89)"/></svg>