<svg id="Layer_1" data-name="Layer 1" xmlns="http://www.w3.org/2000/svg" viewBox="0 0 12.51 12.51"><defs><style>.cls-1{fill:#fcee21;}</style></defs><title>icon_db_skip</title><path class="cls-1" d="M9.61,1.76A6.26,6.26,0,0,0,5.19,12.44,6.26,6.26,0,0,0,15.87,8,6.27,6.27,0,0,0,9.61,1.76m3.87,10.12A5.47,5.47,0,1,1,5.74,4.15a5.46,5.46,0,0,1,7.74,0,5.47,5.47,0,0,1,0,7.73" transform="translate(-3.36 -1.76)"/><path class="cls-1" d="M11.67,8a.39.39,0,0,0-.11-.27L8.22,4.4A.39.39,0,0,0,7.67,5L10.73,8,7.67,11.08a.39.39,0,0,0,.55.55l3.34-3.34A.39.39,0,0,0,11.67,8Z" transform="translate(-3.36 -1.76)"/></svg>