<svg id="Layer_1" data-name="Layer 1" xmlns="http://www.w3.org/2000/svg" viewBox="0 0 27.81 27.02"><defs><style>.cls-1{fill:#fff;}</style></defs><title>icon_db</title><path class="cls-1" d="M23.39,18.09l.14-.08,11.93-5.22a2.44,2.44,0,0,0,.61-1.44,1.74,1.74,0,0,0-.33-1.17L24.41,6.73A5.88,5.88,0,0,0,20.69,7L8.87,11.8a2.08,2.08,0,0,0-.26,2.6l11.5,3.91A3,3,0,0,0,23.39,18.09Z" transform="translate(-8.26 -6.54)"/><path class="cls-1" d="M23.39,23l.14-.08,11.93-5.22a2.44,2.44,0,0,0,.61-1.43,1.71,1.71,0,0,0-.33-1.17l-.22-.07L24.69,19.81a5.33,5.33,0,0,1-2.88.89,4.82,4.82,0,0,1-2.31-.6L9.2,16.62l-.33.13a2.08,2.08,0,0,0-.26,2.6l11.5,3.92A3.05,3.05,0,0,0,23.39,23Z" transform="translate(-8.26 -6.54)"/><path class="cls-1" d="M23.38,28l.15-.07,11.93-5.23a2.1,2.1,0,0,0,.28-2.6L35.52,20,24.69,24.77a5.42,5.42,0,0,1-2.88.89,4.84,4.84,0,0,1-2.31-.61L9.2,21.57l-.33.13a2.08,2.08,0,0,0-.26,2.6l11.5,3.92A3,3,0,0,0,23.38,28Z" transform="translate(-8.26 -6.54)"/><path class="cls-1" d="M8.27,28.07a1.73,1.73,0,0,0,.34,1.19l11.5,3.91a3,3,0,0,0,3.27-.23l.14-.07,11.94-5.23a2.1,2.1,0,0,0,.28-2.6L35.52,25,24.69,29.72a5.42,5.42,0,0,1-2.88.89A4.73,4.73,0,0,1,19.5,30L9.2,26.52l-.33.13A2.37,2.37,0,0,0,8.27,28.07Z" transform="translate(-8.26 -6.54)"/></svg>