<svg id="Layer_1" data-name="Layer 1" xmlns="http://www.w3.org/2000/svg" viewBox="0 0 8.98 13.27"><defs><style>.cls-1{fill:#29aae1;}</style></defs><title>icon_my question indication</title><path class="cls-1" d="M25.75,28c-.75-.12-1.5-.22-2.25-.36-.48-.09-.95-.25-1.43-.36a.28.28,0,0,1-.26-.32c0-.94,0-1.89,0-2.83a3.26,3.26,0,0,1,2.84-3,19.48,19.48,0,0,1,3.15,0,3.24,3.24,0,0,1,2.94,3.11c0,.9,0,1.81,0,2.71a.48.48,0,0,1-.27.35,8.35,8.35,0,0,1-2.7.66c-.13,0-.25.05-.38.07Z" transform="translate(-21.81 -14.73)"/><path class="cls-1" d="M26.31,14.73a2.64,2.64,0,1,1-2.64,2.62A2.64,2.64,0,0,1,26.31,14.73Z" transform="translate(-21.81 -14.73)"/></svg>