<svg id="Layer_1" data-name="Layer 1" xmlns="http://www.w3.org/2000/svg" viewBox="0 0 11.49 11.46"><defs><style>.cls-1{fill:#fff;}</style></defs><title>icon_time</title><path class="cls-1" d="M5.29,4.49H4.4A.52.52,0,0,1,3.83,4a.53.53,0,0,1,.57-.53H6.49a.55.55,0,0,1,.6.57c0,.6.11,1.21.17,1.82,0,.4-.16.67-.49.69s-.53-.21-.56-.6,0-.48-.07-.77a4,4,0,0,0-1,1.44A4.7,4.7,0,1,0,10.3,3.76a8.93,8.93,0,0,0-1.16,0l-.32,0a.53.53,0,0,1-.57-.46.51.51,0,0,1,.47-.56,7.68,7.68,0,0,1,1.59,0A5.65,5.65,0,0,1,15.2,7.6,5.69,5.69,0,0,1,10.75,14,5.67,5.67,0,0,1,3.87,9.39,5.59,5.59,0,0,1,5.16,4.65Z" transform="translate(-3.76 -2.67)"/><path class="cls-1" d="M9,6.75V5.13c0-.4.19-.64.51-.64s.53.23.53.65c0,.94,0,1.87,0,2.81a.65.65,0,0,0,.16.4c.48.5,1,1,1.45,1.46a.52.52,0,0,1,.06.77.48.48,0,0,1-.72,0C10.35,10,9.72,9.34,9.09,8.69A.52.52,0,0,1,9,8.41Z" transform="translate(-3.76 -2.67)"/></svg>