<svg id="Layer_1" data-name="Layer 1" xmlns="http://www.w3.org/2000/svg" viewBox="0 0 16.92 21.04"><defs><style>.cls-1{fill:#999;}</style></defs><title>won</title><path class="cls-1" d="M32.12,29.47c-.42-1.16-.83-2.32-1.27-3.47a.35.35,0,0,1,.09-.45A8.2,8.2,0,0,0,32.87,17a8.13,8.13,0,0,0-6.64-5.67l-.49-.08-.27,0H24.22l-.76.16a11.4,11.4,0,0,0-1.69.45,8.43,8.43,0,0,0-3,13.69c.18.18.19.27.1.52-.37,1-.72,1.92-1.06,2.89l-.26.7a.94.94,0,0,0,.06.94.93.93,0,0,0,.92.2l.23,0c.4-.07.79-.14,1.17-.23.23-.06.36,0,.54.21l.86,1,.45.52h.63l.07-.13a1.45,1.45,0,0,1,.12-.19,2.93,2.93,0,0,0,.26-.5c.33-.87.65-1.74,1-2.62l.26-.72h.28c.41,0,.82,0,1.19,0a.34.34,0,0,1,.12.14c.21.55.4,1.09.6,1.63s.38,1.05.58,1.56a2.38,2.38,0,0,0,.27.5l.12.19.07.13H28l.44-.51c.29-.33.57-.66.85-1a.51.51,0,0,1,.61-.24,12.8,12.8,0,0,0,1.45.29.75.75,0,0,0,.89-1.11Zm-.3-9.77a7,7,0,0,1-7,6.93h0a7,7,0,0,1-6.89-7,7,7,0,0,1,7-6.92H25A6.94,6.94,0,0,1,31.82,19.7Z" transform="translate(-16.42 -11.21)"/><path class="cls-1" d="M24.9,14.07a5.61,5.61,0,1,0,5.6,5.64A5.63,5.63,0,0,0,24.9,14.07Z" transform="translate(-16.42 -11.21)"/></svg>