<svg id="Layer_1" data-name="Layer 1" xmlns="http://www.w3.org/2000/svg" viewBox="0 0 40.68 40.68"><defs><style>.cls-1{fill:#666;}.cls-2{fill:#fff;}</style></defs><title>share</title><rect class="cls-1" x="7.23" y="5.37" width="31.89" height="31.89" rx="5.33" ry="5.33" transform="translate(19.03 -11.12) rotate(45)"/><path class="cls-2" d="M22,26.66a4.3,4.3,0,0,0,3,.55c-.1.12-.16.2-.23.27-1.06,1.06-2.11,2.13-3.18,3.18a4.88,4.88,0,0,1-5.45,1.1,4.67,4.67,0,0,1-1.34-7.45c1.39-1.49,2.84-2.92,4.32-4.32a4.75,4.75,0,0,1,6.44-.11,1.24,1.24,0,0,1,.15,1.83,1.27,1.27,0,0,1-1.81,0,2.32,2.32,0,0,0-3.26.2c-.83.8-1.63,1.63-2.44,2.45-.53.53-1.08,1.05-1.57,1.6a2.18,2.18,0,0,0,.53,3.5,2.32,2.32,0,0,0,2.63-.56c.66-.63,1.3-1.28,1.94-1.93A1.84,1.84,0,0,0,22,26.66Z" transform="translate(-2.83 -0.98)"/><path class="cls-2" d="M24.63,18a4.38,4.38,0,0,0-2.9-.55,1,1,0,0,1,.15-.24c1.11-1.11,2.2-2.24,3.34-3.32a4.8,4.8,0,0,1,6.06-.53,4.69,4.69,0,0,1,.65,6.93q-2.14,2.32-4.49,4.47a4.7,4.7,0,0,1-6.27.1A1.26,1.26,0,0,1,20.92,23a1.24,1.24,0,0,1,1.87,0,2.24,2.24,0,0,0,2.82.12,3.72,3.72,0,0,0,.48-.41c1.25-1.26,2.51-2.52,3.76-3.79a2.44,2.44,0,0,0,.82-2,2,2,0,0,0-2.82-1.74,3.67,3.67,0,0,0-1.1.74C26,16.53,25.35,17.25,24.63,18Z" transform="translate(-2.83 -0.98)"/></svg>