<svg id="Layer_1" data-name="Layer 1" xmlns="http://www.w3.org/2000/svg" viewBox="0 0 10.61 15.68"><defs><style>.cls-1{fill:#b2b2b2;}</style></defs><title>summary_2</title><path class="cls-1" d="M25.79,30c-.89-.14-1.78-.26-2.66-.43-.57-.1-1.13-.29-1.69-.42a.34.34,0,0,1-.31-.38c0-1.11,0-2.23,0-3.34a3.86,3.86,0,0,1,3.36-3.57,24.31,24.31,0,0,1,3.72,0,3.83,3.83,0,0,1,3.48,3.67c.05,1.07,0,2.15,0,3.22a.62.62,0,0,1-.32.41,10.3,10.3,0,0,1-3.18.78,3.4,3.4,0,0,0-.46.08Z" transform="translate(-21.13 -14.27)"/><path class="cls-1" d="M26.46,14.27a3.11,3.11,0,1,1-3.13,3.09A3.13,3.13,0,0,1,26.46,14.27Z" transform="translate(-21.13 -14.27)"/></svg>