<svg id="Layer_1" data-name="Layer 1" xmlns="http://www.w3.org/2000/svg" viewBox="0 0 17.05 16.55"><defs><style>.cls-1{fill:#b2b2b2;}</style></defs><title>summary_3</title><path class="cls-1" d="M23.66,22.87l.08-.05,7.31-3.2a1.55,1.55,0,0,0,.38-.88,1.09,1.09,0,0,0-.21-.72L24.28,15.9a3.64,3.64,0,0,0-2.28.17L14.76,19a1.26,1.26,0,0,0-.16,1.59l7,2.4A1.84,1.84,0,0,0,23.66,22.87Z" transform="translate(-14.38 -15.79)"/><path class="cls-1" d="M23.66,25.87l.08,0,7.31-3.2a1.52,1.52,0,0,0,.38-.88,1,1,0,0,0-.21-.72l-.13,0-6.64,2.93a3.24,3.24,0,0,1-1.76.55,3.06,3.06,0,0,1-1.42-.37L15,22l-.2.07a1.27,1.27,0,0,0-.16,1.6l7,2.4A1.86,1.86,0,0,0,23.66,25.87Z" transform="translate(-14.38 -15.79)"/><path class="cls-1" d="M23.65,28.94l.09,0,7.31-3.21a1.29,1.29,0,0,0,.17-1.59L31.09,24,24.45,27a3.31,3.31,0,0,1-1.76.54,3,3,0,0,1-1.42-.37L15,25l-.2.08a1.26,1.26,0,0,0-.16,1.59l7,2.41A1.84,1.84,0,0,0,23.65,28.94Z" transform="translate(-14.38 -15.79)"/><path class="cls-1" d="M14.38,29a1.06,1.06,0,0,0,.21.73l7.05,2.4a1.84,1.84,0,0,0,2-.14l.09,0,7.32-3.2a1.29,1.29,0,0,0,.17-1.59h-.13L24.45,30a3.24,3.24,0,0,1-1.76.55,2.82,2.82,0,0,1-1.42-.38L15,28l-.2.08A1.47,1.47,0,0,0,14.38,29Z" transform="translate(-14.38 -15.79)"/></svg>