<svg id="Layer_1" data-name="Layer 1" xmlns="http://www.w3.org/2000/svg" viewBox="0 0 20.08 20.08"><defs><style>.cls-1{fill:#b2b2b2;}.cls-2{fill:#fff;}</style></defs><title>summary_1</title><rect class="cls-1" x="16.81" y="13.87" width="15.71" height="15.71" rx="2.59" ry="2.59" transform="translate(-22.77 12.12) rotate(-45)"/><path class="cls-2" d="M23.78,24.33l0-.39a3.43,3.43,0,0,1,.93-2.59,3.28,3.28,0,0,0,1.05-2.06c0-.76-.48-1.27-1.42-1.29a2.66,2.66,0,0,0-1.52.47l-.36-.95a4,4,0,0,1,2.15-.6,2.22,2.22,0,0,1,2.5,2.21,4.07,4.07,0,0,1-1.29,2.61,2.93,2.93,0,0,0-.85,2.2v.39Zm-.33,2.1a.89.89,0,0,1,.9-.94.94.94,0,1,1-.9.94Z" transform="translate(-14.63 -11.69)"/></svg>